<?xml version="1.0" encoding="utf-8"?>
<!-- Generator: Adobe Illustrator 19.2.0, SVG Export Plug-In . SVG Version: 6.00 Build 0)  -->
<svg version="1.1" id="Layer_1" xmlns="http://www.w3.org/2000/svg" xmlns:xlink="http://www.w3.org/1999/xlink" x="0px" y="0px"
	 viewBox="0 0 32 32" style="enable-background:new 0 0 32 32;" xml:space="preserve">
<style type="text/css">
	.st0{fill:#FFFFFF;}
</style>
<circle class="st0" cx="16" cy="16" r="16"/>
<path d="M3.7,4.7h8.6L8.7,8C8.4,8.3,8.2,8.4,8,8.4C7.9,8.4,7.6,8.3,7.3,8L3.7,4.7L3.7,4.7z M3.3,10.5V5.3l2.8,2.5L3.3,10.5z
	 M3.8,10.9l2.8-2.6l0.4,0.4c0.2,0.2,0.6,0.4,1,0.4c0.4,0,0.7-0.1,1-0.4l0.4-0.4l2.9,2.6H3.8z M12.8,10.5L10,7.8l2.8-2.6L12.8,10.5
	L12.8,10.5z"/>
<path d="M12.3,11L9.5,8.4L9,8.8C8.7,9,8.4,9.2,8,9.2C7.6,9.2,7.3,9,7,8.8L6.5,8.4L3.7,11H12.3L12.3,11z"/>
<polygon points="3.2,5.3 3.2,10.5 6.1,7.9 3.2,5.3 "/>
<path d="M3.7,4.7L7.3,8C7.6,8.3,7.9,8.4,8,8.4c0.2,0,0.4-0.1,0.7-0.4l3.6-3.3L3.7,4.7L3.7,4.7z"/>
<polygon points="12.8,5.3 10,7.9 12.8,10.5 12.8,5.3 "/>
</svg>
